<?xml version="1.0" encoding="utf-8"?>
<!-- Generator: Adobe Illustrator 22.0.1, SVG Export Plug-In . SVG Version: 6.00 Build 0)  -->
<svg version="1.1" id="图层_1" xmlns="http://www.w3.org/2000/svg" xmlns:xlink="http://www.w3.org/1999/xlink" x="0px" y="0px"
	 viewBox="0 0 30 38" style="enable-background:new 0 0 30 38;" xml:space="preserve">
<style type="text/css">
	.st0{fill:#fff;}
</style>
<g>
	<g>
		<g>
			<path class="st0" d="M25.1,11l1.7,25H3.1l1.7-25H25.1 M27,9H3L1,38h28L27,9L27,9z"/>
		</g>
	</g>
	<path class="st0" d="M15,2c3.3,0,6,3,6,6.6v5.2c0,0.1,0.1,0.2,0.2,0.2h1.6c0.1,0,0.2-0.1,0.2-0.2V8.6C23,3.9,19.4,0,15,0l0,0
		c-4.4,0-8,3.9-8,8.6v5.2C7,13.9,7.1,14,7.2,14h1.6C8.9,14,9,13.9,9,13.8V8.6C9,5,11.7,2,15,2"/>
</g>
</svg>
