<?xml version="1.0" standalone="no"?><!DOCTYPE svg PUBLIC "-//W3C//DTD SVG 1.1//EN" "http://www.w3.org/Graphics/SVG/1.1/DTD/svg11.dtd"><svg t="1598163150816" class="icon" viewBox="0 0 1024 1024" version="1.1" xmlns="http://www.w3.org/2000/svg" p-id="6190" width="64" height="64" xmlns:xlink="http://www.w3.org/1999/xlink"><defs><style type="text/css"></style></defs><path d="M512 1024C230.4 1024 0 793.6 0 512S230.4 0 512 0s512 230.4 512 512-230.4 512-512 512z m0-950.857143C270.628571 73.142857 73.142857 270.628571 73.142857 512s197.485714 438.857143 438.857143 438.857143 438.857143-197.485714 438.857143-438.857143S753.371429 73.142857 512 73.142857z" p-id="6191" fill="#000000"></path><path d="M329.142857 731.428571c-10.971429 0-18.285714-3.657143-25.6-10.971428-14.628571-14.628571-14.628571-36.571429 0-51.2l365.714286-365.714286c14.628571-14.628571 36.571429-14.628571 51.2 0 14.628571 14.628571 14.628571 36.571429 0 51.2l-365.714286 365.714286c-7.314286 7.314286-14.628571 10.971429-25.6 10.971428z" p-id="6192" fill="#000000"></path><path d="M694.857143 731.428571c-10.971429 0-18.285714-3.657143-25.6-10.971428l-365.714286-365.714286c-14.628571-14.628571-14.628571-36.571429 0-51.2 14.628571-14.628571 36.571429-14.628571 51.2 0l365.714286 365.714286c14.628571 14.628571 14.628571 36.571429 0 51.2-7.314286 7.314286-14.628571 10.971429-25.6 10.971428z" p-id="6193" fill="#000000"></path></svg>