<?xml version="1.0" standalone="no"?><!DOCTYPE svg PUBLIC "-//W3C//DTD SVG 1.1//EN" "http://www.w3.org/Graphics/SVG/1.1/DTD/svg11.dtd"><svg t="1644292677349" class="icon" viewBox="0 0 1024 1024" version="1.1" xmlns="http://www.w3.org/2000/svg" p-id="1326" xmlns:xlink="http://www.w3.org/1999/xlink" width="200" height="200"><defs><style type="text/css"></style></defs><path d="M512 938.666667C276.693333 938.666667 85.333333 747.306667 85.333333 512S276.693333 85.333333 512 85.333333s426.666667 191.36 426.666667 426.666667-191.36 426.666667-426.666667 426.666667z m0-789.333334C312.106667 149.333333 149.333333 312.106667 149.333333 512s162.773333 362.666667 362.666667 362.666667 362.666667-162.773333 362.666667-362.666667S711.893333 149.333333 512 149.333333z" fill="#2B2C2C" p-id="1327"></path><path d="M709.12 561.92H486.4c-17.706667 0-32-14.293333-32-32V306.986667c0-17.706667 14.293333-32 32-32s32 14.293333 32 32v190.933333h190.933333c17.706667 0 32 14.293333 32 32s-14.506667 32-32.213333 32z" fill="#2B2C2C" p-id="1328"></path></svg>